<svg id="Layer_1" data-name="Layer 1" xmlns="http://www.w3.org/2000/svg" viewBox="0 0 48.91 45.06"><defs><style>.cls-1{fill:#fff;}.cls-2{fill:#343434;}</style></defs><title>logo-w</title><rect class="cls-1" y="8.5" width="48.91" height="28.46" rx="0.62" ry="0.62"/><rect class="cls-1" x="3.39" y="4.29" width="41.95" height="36.8" rx="0.59" ry="0.59"/><rect class="cls-1" x="7.38" width="33.75" height="45.06" rx="0.64" ry="0.64"/><rect class="cls-2" x="22.82" y="11.43" width="4.9" height="19.01" rx="0.39" ry="0.39"/><rect class="cls-2" x="40.63" y="11.43" width="4.9" height="19.01" rx="0.39" ry="0.39"/><rect class="cls-2" x="27.51" y="29.98" width="4.81" height="4.93" rx="0.39" ry="0.39"/><rect class="cls-2" x="31.83" y="25.35" width="4.81" height="4.93" rx="0.39" ry="0.39"/><rect class="cls-2" x="36.16" y="30.07" width="4.81" height="4.93" rx="0.39" ry="0.39"/><rect class="cls-2" x="5.01" y="11.44" width="5.18" height="23.76" rx="0.36" ry="0.36"/><rect class="cls-2" x="10.17" y="13.83" width="4.81" height="4.69" rx="0.39" ry="0.39"/><rect class="cls-2" x="10.17" y="28.36" width="4.81" height="4.69" rx="0.39" ry="0.39"/><rect class="cls-2" x="14.63" y="18.09" width="5.44" height="10.65" rx="0.39" ry="0.39"/></svg>