<svg id="Layer_1" data-name="Layer 1" xmlns="http://www.w3.org/2000/svg" viewBox="0 0 30.21 27.84"><defs><style>.cls-1{fill:#fff;}</style></defs><title>logo</title><rect y="5.25" width="30.21" height="17.58" rx="0.62" ry="0.62"/><rect x="2.1" y="2.65" width="25.92" height="22.74" rx="0.59" ry="0.59"/><rect x="4.56" width="20.85" height="27.84" rx="0.64" ry="0.64"/><rect class="cls-1" x="14.1" y="7.06" width="3.03" height="11.74" rx="0.39" ry="0.39"/><rect class="cls-1" x="25.1" y="7.06" width="3.03" height="11.74" rx="0.39" ry="0.39"/><rect class="cls-1" x="16.99" y="18.52" width="2.97" height="3.04" rx="0.39" ry="0.39"/><rect class="cls-1" x="19.66" y="15.66" width="2.97" height="3.04" rx="0.39" ry="0.39"/><rect class="cls-1" x="22.34" y="18.57" width="2.97" height="3.04" rx="0.39" ry="0.39"/><rect class="cls-1" x="3.09" y="7.07" width="3.2" height="14.68" rx="0.36" ry="0.36"/><rect class="cls-1" x="6.28" y="8.55" width="2.97" height="2.9" rx="0.39" ry="0.39"/><rect class="cls-1" x="6.28" y="17.52" width="2.97" height="2.9" rx="0.39" ry="0.39"/><rect class="cls-1" x="9.04" y="11.17" width="3.36" height="6.58" rx="0.39" ry="0.39"/></svg>