<?xml version="1.0" encoding="utf-8"?>
<!-- Generator: Adobe Illustrator 19.2.0, SVG Export Plug-In . SVG Version: 6.00 Build 0)  -->
<svg version="1.1" id="Layer_1" xmlns="http://www.w3.org/2000/svg" xmlns:xlink="http://www.w3.org/1999/xlink" x="0px" y="0px"
	 viewBox="0 0 46.5 28.2" style="enable-background:new 0 0 46.5 28.2;" xml:space="preserve">
<style type="text/css">
	.st0{fill:#A00F8F;stroke:#95989A;stroke-width:0.1;stroke-miterlimit:10;}
	.st1{fill:#44CCFF;stroke:#95989A;stroke-width:0.1;stroke-miterlimit:10;}
	.st2{fill:#FFB400;stroke:#95989A;stroke-width:0.1;stroke-miterlimit:10;}
	.st3{fill:#D83400;stroke:#95989A;stroke-width:0.1;stroke-miterlimit:10;}
	.st4{fill:#FFFF12;stroke:#95989A;stroke-width:0.1;stroke-miterlimit:10;}
	.st5{fill:#22E554;stroke:#95989A;stroke-width:0.1;stroke-miterlimit:10;}
	.st6{fill:#1C52E3;stroke:#95989A;stroke-width:0.1;stroke-miterlimit:10;}
</style>
<title>green</title>
<rect x="11.3" y="3" class="st0" width="3" height="3"/>
<rect x="14.3" y="3" class="st0" width="3" height="3"/>
<rect x="17.3" y="3" class="st0" width="3" height="3"/>
<rect x="14.3" y="0.1" class="st0" width="3" height="3"/>
<rect x="11.4" y="9.8" class="st1" width="3" height="3"/>
<rect x="14.4" y="9.8" class="st1" width="3" height="3"/>
<rect x="17.4" y="9.8" class="st1" width="3" height="3"/>
<rect x="20.4" y="9.8" class="st1" width="3" height="3"/>
<rect x="11.8" y="17.5" class="st2" width="3" height="3"/>
<rect x="14.8" y="17.5" class="st2" width="3" height="3"/>
<rect x="17.8" y="17.5" class="st2" width="3" height="3"/>
<rect x="17.8" y="14.5" class="st2" width="3" height="3"/>
<rect x="0.1" y="14.8" class="st3" width="3" height="3"/>
<rect x="3" y="14.8" class="st3" width="3" height="3"/>
<rect x="6.1" y="14.8" class="st3" width="3" height="3"/>
<rect x="6.1" y="17.8" class="st3" width="3" height="3"/>
<rect x="22.2" y="20.6" class="st4" width="3" height="3"/>
<rect x="25.2" y="20.6" class="st4" width="3" height="3"/>
<rect x="25.2" y="23.6" class="st4" width="3" height="3"/>
<rect x="22.2" y="23.6" class="st4" width="3" height="3"/>
<rect x="37.4" y="8.8" class="st5" width="3" height="3"/>
<rect x="40.4" y="8.8" class="st5" width="3" height="3"/>
<rect x="40.4" y="5.8" class="st5" width="3" height="3"/>
<rect x="43.4" y="5.8" class="st5" width="3" height="3"/>
<rect x="17.3" y="25.1" class="st6" width="3" height="3"/>
<rect x="14.3" y="25.1" class="st6" width="3" height="3"/>
<rect x="11.3" y="25.1" class="st6" width="3" height="3"/>
<rect x="11.3" y="22.1" class="st6" width="3" height="3"/>
</svg>
